<svg xmlns="http://www.w3.org/2000/svg" viewBox="0 0 200 200">
  <polygon points="100,4 196,100 100,196 4,100" fill="#FFD700"/>
  <polygon points="100,14 186,100 100,186 14,100" fill="none" stroke="black" stroke-width="2"/>
  <!-- Circle (oxidizer symbol base) -->
  <circle cx="100" cy="104" r="18" fill="none" stroke="black" stroke-width="3"/>
  <!-- Flame over circle -->
  <path d="M88,100 Q84,87 91,78 Q89,88 94,84 Q90,75 97,66 Q99,75 96,83 Q101,71 105,66 Q103,77 108,73 Q111,80 108,89 Q114,80 111,98 Q108,108 100,110 Q92,108 88,100Z" fill="black"/>
  <text x="100" y="150" font-family="Arial, sans-serif" font-size="13" font-weight="bold" fill="black" text-anchor="middle" letter-spacing="1">OXIDIZER</text>
  <text x="100" y="173" font-family="Arial, sans-serif" font-size="14" font-weight="bold" fill="black" text-anchor="middle">5.1</text>
</svg>
